<svg width="178" height="50" viewBox="0 0 178 50" fill="none" xmlns="http://www.w3.org/2000/svg">
<path d="M169.795 21.0454C169.795 22.1334 170.227 23.1769 170.997 23.9463C171.766 24.7156 172.81 25.1479 173.898 25.1479C174.986 25.1479 176.029 24.7156 176.798 23.9463C177.568 23.1769 178 22.1334 178 21.0454C178 19.9573 177.568 18.9138 176.798 18.1445C176.029 17.3751 174.986 16.9429 173.898 16.9429C172.81 16.9429 171.766 17.3751 170.997 18.1445C170.227 18.9138 169.795 19.9573 169.795 21.0454Z" fill="#006ED2"/>
<path d="M28.619 47.3975C26.526 47.3975 24.946 45.6935 24.946 43.6695C24.946 41.6315 26.526 39.9125 28.619 39.9125C29.978 39.9125 30.823 40.4815 31.489 41.1885L30.781 41.9365C30.213 41.3405 29.575 40.8555 28.605 40.8555C27.15 40.8555 26.041 42.0885 26.041 43.6415C26.041 45.2075 27.178 46.4415 28.675 46.4415C29.589 46.4415 30.296 45.9845 30.865 45.3745L31.544 46.0115C30.823 46.8155 29.964 47.3975 28.619 47.3975ZM33.974 47.2315H32.906V40.0655H33.974V41.9365C34.5 40.7445 35.54 39.8855 36.898 39.9405V41.0905H36.815C35.249 41.0905 33.974 42.2135 33.974 44.3765V47.2315ZM43.22 43.2535C43.11 41.9505 42.361 40.8135 40.934 40.8135C39.686 40.8135 38.744 41.8535 38.605 43.2535H43.22ZM41.128 46.4695C42.112 46.4695 42.805 46.0675 43.387 45.4575L44.052 46.0535C43.332 46.8575 42.459 47.3975 41.1 47.3975C39.132 47.3975 37.524 45.8875 37.524 43.6555C37.524 41.5765 38.979 39.9135 40.961 39.9135C43.081 39.9135 44.301 41.6035 44.301 43.7105C44.301 43.8085 44.301 43.9185 44.288 44.0435H38.605C38.757 45.5965 39.866 46.4695 41.128 46.4695ZM49.1 40.8695C47.714 40.8695 46.578 41.8945 46.578 43.6415C46.578 45.3465 47.742 46.4275 49.1 46.4275C50.43 46.4275 51.692 45.3185 51.692 43.6415C51.692 41.9785 50.431 40.8695 49.1 40.8695ZM51.65 47.2315V45.7895C51.068 46.6495 50.223 47.3835 48.906 47.3835C47.188 47.3835 45.482 46.0255 45.482 43.6555C45.482 41.2995 47.188 39.9135 48.906 39.9135C50.236 39.9135 51.096 40.6335 51.651 41.4375V37.1135H52.718V47.2315H51.65ZM54.815 40.0655H55.883V47.2315H54.815V40.0655ZM54.746 37.3215H55.966V38.4995H54.746V37.3215ZM59.28 45.1935C59.28 46.0675 59.766 46.3855 60.486 46.3855C60.846 46.3855 61.152 46.3165 61.526 46.1365V47.0515C61.1283 47.2595 60.6848 47.3644 60.236 47.3565C59.086 47.3565 58.213 46.7875 58.213 45.3325V41.0085H57.215V40.0655H58.213V37.9035H59.28V40.0655H61.553V41.0085H59.28V45.1935ZM75.385 39.9135C77.035 39.9135 78.045 41.0215 78.045 42.7965V47.2315H76.98V43.0455C76.98 41.6595 76.287 40.8835 75.122 40.8835C74.042 40.8835 73.14 41.6875 73.14 43.1015V47.2315H72.087V43.0185C72.087 41.6735 71.3801 40.8835 70.244 40.8835C69.107 40.8835 68.248 41.8255 68.248 43.1425V47.2315H67.18V40.0655H68.248V41.2715C68.719 40.5645 69.356 39.9135 70.563 39.9135C71.7271 39.9135 72.475 40.5365 72.863 41.3405C73.376 40.5505 74.137 39.9135 75.385 39.9135ZM80.58 45.0965C80.58 46.0125 81.412 46.5385 82.382 46.5385C83.6991 46.5385 84.78 45.7345 84.78 44.5985V43.9055C84.0959 43.7036 83.3864 43.6006 82.673 43.5995C81.329 43.5995 80.58 44.1815 80.58 45.0965ZM80.455 41.4375L80.137 40.5645C80.927 40.2045 81.703 39.9685 82.743 39.9685C84.697 39.9685 85.792 40.9665 85.792 42.8515V47.2315H84.766V46.1505C84.268 46.8015 83.4361 47.3835 82.174 47.3835C80.844 47.3835 79.499 46.6355 79.499 45.1385C79.499 43.6135 80.747 42.8105 82.563 42.8105C83.4771 42.8105 84.129 42.9345 84.766 43.1145V42.8645C84.766 41.5765 83.9761 40.9115 82.632 40.9115C81.786 40.9115 81.121 41.1335 80.455 41.4375ZM88.832 47.2315H87.764V40.0655H88.832V41.3135C89.302 40.5365 90.052 39.9135 91.285 39.9135C93.0181 39.9135 94.029 41.0775 94.029 42.7825V47.2315H92.962V43.0455C92.962 41.7155 92.2421 40.8835 90.98 40.8835C89.747 40.8835 88.832 41.7835 88.832 43.1285V47.2315ZM96.524 45.0965C96.524 46.0125 97.355 46.5385 98.325 46.5385C99.642 46.5385 100.724 45.7345 100.724 44.5985V43.9055C100.04 43.7036 99.3304 43.6006 98.617 43.5995C97.272 43.5995 96.524 44.1815 96.524 45.0965ZM96.399 41.4375L96.08 40.5645C96.87 40.2045 97.646 39.9685 98.686 39.9685C100.64 39.9685 101.736 40.9665 101.736 42.8515V47.2315H100.709V46.1505C100.211 46.8015 99.379 47.3835 98.118 47.3835C96.788 47.3835 95.442 46.6355 95.442 45.1385C95.442 43.6135 96.69 42.8105 98.506 42.8105C99.421 42.8105 100.072 42.9345 100.709 43.1145V42.8645C100.709 41.5765 99.919 40.9115 98.575 40.9115C97.73 40.9115 97.064 41.1335 96.399 41.4375ZM106.814 40.8555C105.455 40.8555 104.333 41.7845 104.333 43.2815C104.333 44.7505 105.483 45.7345 106.813 45.7345C108.173 45.7345 109.447 44.7645 109.447 43.2945C109.447 41.8115 108.172 40.8555 106.814 40.8555ZM106.827 49.4765C105.636 49.4765 104.527 49.1445 103.571 48.4785L104.056 47.6475C104.873 48.2435 105.788 48.5625 106.814 48.5625C108.394 48.5625 109.419 47.6895 109.419 46.0125V45.1665C108.796 45.9975 107.923 46.6765 106.606 46.6765C104.887 46.6765 103.237 45.4015 103.237 43.3095C103.237 41.2025 104.901 39.9135 106.606 39.9135C107.951 39.9135 108.824 40.5785 109.406 41.3545V40.0655H110.473V45.9835C110.473 48.2985 109.031 49.4765 106.827 49.4765ZM117.798 43.2535C117.688 41.9505 116.938 40.8135 115.511 40.8135C114.264 40.8135 113.321 41.8535 113.183 43.2535H117.798ZM115.705 46.4695C116.69 46.4695 117.382 46.0675 117.965 45.4575L118.63 46.0535C117.91 46.8575 117.036 47.3975 115.677 47.3975C113.71 47.3975 112.101 45.8875 112.101 43.6555C112.101 41.5765 113.557 39.9135 115.539 39.9135C117.659 39.9135 118.879 41.6035 118.879 43.7105C118.879 43.8085 118.879 43.9185 118.866 44.0435H113.183C113.335 45.5965 114.443 46.4695 115.705 46.4695ZM128.673 39.9135C130.323 39.9135 131.334 41.0215 131.334 42.7965V47.2315H130.268V43.0455C130.268 41.6595 129.574 40.8835 128.41 40.8835C127.33 40.8835 126.428 41.6875 126.428 43.1015V47.2315H125.375V43.0185C125.375 41.6735 124.668 40.8835 123.532 40.8835C122.395 40.8835 121.535 41.8255 121.535 43.1425V47.2315H120.468V40.0655H121.535V41.2715C122.007 40.5645 122.645 39.9135 123.85 39.9135C125.015 39.9135 125.763 40.5365 126.15 41.3405C126.664 40.5505 127.426 39.9135 128.673 39.9135ZM138.616 43.2535C138.506 41.9505 137.757 40.8135 136.33 40.8135C135.082 40.8135 134.14 41.8535 134 43.2535H138.616ZM136.523 46.4695C137.508 46.4695 138.2 46.0675 138.783 45.4575L139.448 46.0535C138.728 46.8575 137.854 47.3975 136.495 47.3975C134.528 47.3975 132.92 45.8875 132.92 43.6555C132.92 41.5765 134.375 39.9135 136.357 39.9135C138.477 39.9135 139.697 41.6035 139.697 43.7105C139.697 43.8085 139.697 43.9185 139.684 44.0435H134C134.152 45.5965 135.261 46.4695 136.523 46.4695ZM142.354 47.2315H141.286V40.0655H142.354V41.3135C142.824 40.5365 143.574 39.9135 144.807 39.9135C146.539 39.9135 147.551 41.0775 147.551 42.7825V47.2315H146.484V43.0455C146.484 41.7155 145.764 40.8835 144.502 40.8835C143.269 40.8835 142.354 41.7835 142.354 43.1285V47.2315ZM150.782 45.1935C150.782 46.0675 151.268 46.3855 151.989 46.3855C152.349 46.3855 152.654 46.3165 153.028 46.1365V47.0515C152.63 47.2595 152.187 47.3644 151.738 47.3565C150.588 47.3565 149.715 46.7875 149.715 45.3325V41.0085H148.717V40.0655H149.715V37.9035H150.782V40.0655H153.055V41.0085H150.782V45.1935Z" fill="#626C74"/>
<path d="M15.506 17.7344C15.506 16.0864 14.278 15.0684 11.506 15.0684H5.263V20.4714H11.683C14.069 20.4714 15.507 19.6294 15.507 17.8054V17.7354L15.506 17.7344ZM14.138 7.91341C14.138 6.29941 12.875 5.38741 10.595 5.38741H5.262V10.5784H10.244C12.63 10.5784 14.138 9.80741 14.138 7.98241V7.91341ZM11.682 25.2074H0V0.650414H11.402C16.419 0.650414 19.506 3.14041 19.506 7.00041V7.07041C19.506 9.84041 18.032 11.3854 16.278 12.3674C19.119 13.4544 20.874 15.1034 20.874 18.4014V18.4714C20.874 22.9614 17.225 25.2074 11.682 25.2074ZM23.58 0.649414H28.912V25.2064H23.579L23.58 0.649414ZM44.248 25.2074V22.5414C43.02 24.1204 41.441 25.5574 38.74 25.5574C34.705 25.5574 32.355 22.8914 32.355 18.5774V6.40341H37.687V16.8934C37.687 19.4184 38.88 20.7164 40.915 20.7164C42.95 20.7164 44.248 19.4184 44.248 16.8934V6.40341H49.58V25.2074H44.248ZM62.018 10.3324C59.808 10.3324 58.369 11.9114 57.948 14.3324H65.982C65.666 11.9464 64.263 10.3324 62.018 10.3324ZM71.104 17.6644H58.018C58.545 20.0844 60.228 21.3484 62.614 21.3484C64.404 21.3484 65.701 20.7864 67.174 19.4184L70.227 22.1204C68.473 24.2944 65.947 25.6284 62.544 25.6284C56.896 25.6284 52.721 21.6634 52.721 15.9104V15.8404C52.721 10.4724 56.545 6.05241 62.018 6.05241C68.298 6.05241 71.174 10.9294 71.174 16.2614V16.3314C71.174 16.8574 71.139 17.1734 71.104 17.6644Z" fill="#006ED2"/>
<path d="M81.617 25.5574C78.987 25.5574 76.039 24.6804 73.549 22.7164L75.829 19.2084C77.863 20.6814 80.003 21.4534 81.758 21.4534C83.301 21.4534 84.003 20.8924 84.003 20.0504V19.9804C84.003 18.8224 82.179 18.4364 80.109 17.8044C77.477 17.0334 74.496 15.8044 74.496 12.1564V12.0864C74.496 8.26244 77.583 6.12244 81.372 6.12244C83.757 6.12244 86.353 6.92944 88.388 8.29744L86.353 11.9814C84.493 10.8944 82.635 10.2274 81.266 10.2274C79.968 10.2274 79.302 10.7884 79.302 11.5254V11.5954C79.302 12.6484 81.092 13.1394 83.125 13.8404C85.757 14.7184 88.809 15.9804 88.809 19.4184V19.4884C88.809 23.6634 85.687 25.5574 81.617 25.5574ZM98.268 25.5234C95.005 25.5234 92.795 24.2254 92.795 19.8744V10.9644H90.549V6.40344H92.795V0.523438H98.127V6.40344H102.547V10.9634H98.127V18.9974C98.127 20.2254 98.653 20.8214 99.847 20.8214C100.766 20.826 101.671 20.5968 102.477 20.1554V24.4354C101.355 25.1024 100.057 25.5224 98.267 25.5224M119.887 15.8404C119.887 13.0684 117.887 10.6484 114.941 10.6484C111.889 10.6484 110.065 12.9984 110.065 15.7704V15.8404C110.065 18.6114 112.064 21.0324 115.011 21.0324C118.063 21.0324 119.887 18.6824 119.887 15.9104V15.8404ZM114.941 25.6284C109.117 25.6284 104.802 21.3134 104.802 15.9104V15.8404C104.802 10.4374 109.152 6.05244 115.011 6.05244C120.835 6.05244 125.149 10.3674 125.149 15.7704V15.8404C125.149 21.2424 120.799 25.6284 114.941 25.6284ZM140.66 25.2074V14.7174C140.66 12.1914 139.468 10.8934 137.433 10.8934C135.398 10.8934 134.1 12.1914 134.1 14.7174V25.2074H128.768V6.40344H134.1V9.06944C135.328 7.49044 136.907 6.05244 139.608 6.05244C143.643 6.05244 145.993 8.71844 145.993 13.0334V25.2074H140.66ZM158.314 10.3324C156.104 10.3324 154.666 11.9114 154.244 14.3324H162.278C161.963 11.9464 160.56 10.3324 158.314 10.3324ZM167.401 17.6644H154.315C154.842 20.0844 156.525 21.3484 158.911 21.3484C160.701 21.3484 161.998 20.7864 163.471 19.4184L166.523 22.1204C164.769 24.2944 162.243 25.6284 158.841 25.6284C153.192 25.6284 149.018 21.6634 149.018 15.9104V15.8404C149.018 10.4724 152.842 6.05244 158.314 6.05244C164.594 6.05244 167.471 10.9294 167.471 16.2614V16.3314C167.471 16.8574 167.436 17.1734 167.401 17.6644ZM161.197 33.0114H16.853V32.6014H161.197V33.0114Z" fill="#626C74"/>
</svg>
